<svg width="27" height="37" viewBox="0 0 27 37" fill="none" xmlns="http://www.w3.org/2000/svg">
<path d="M12.1126 35.8716C1.89633 20.81 0 19.2642 0 13.7288C0 6.14658 6.04413 0 13.5 0C20.9559 0 27 6.14658 27 13.7288C27 19.2642 25.1037 20.81 14.8874 35.8716C14.217 36.8565 12.783 36.8564 12.1126 35.8716ZM13.5 19.4492C16.6066 19.4492 19.125 16.8881 19.125 13.7288C19.125 10.5695 16.6066 8.00848 13.5 8.00848C10.3934 8.00848 7.875 10.5695 7.875 13.7288C7.875 16.8881 10.3934 19.4492 13.5 19.4492Z" fill="#E68D01"/>
</svg>
