<svg width="198" height="50" viewBox="0 0 198 50" fill="none" xmlns="http://www.w3.org/2000/svg">
<path d="M16.3362 17.584H8.88822L7.57222 21H0.852216L9.42022 1.4H15.9162L24.4842 21H17.6522L16.3362 17.584ZM14.5162 12.824L12.6122 7.896L10.7082 12.824H14.5162ZM40.8894 10.668H46.6294V18.956C45.472 19.7587 44.128 20.3747 42.5974 20.804C41.0667 21.2333 39.564 21.448 38.0894 21.448C35.9987 21.448 34.1227 21.0187 32.4614 20.16C30.8 19.2827 29.4934 18.0693 28.5414 16.52C27.608 14.952 27.1414 13.1787 27.1414 11.2C27.1414 9.22133 27.608 7.45733 28.5414 5.908C29.4934 4.34 30.8094 3.12667 32.4894 2.268C34.188 1.39067 36.1014 0.951999 38.2294 0.951999C40.152 0.951999 41.8694 1.27867 43.3814 1.932C44.912 2.56667 46.1814 3.5 47.1894 4.732L42.9614 8.456C41.7294 7.01867 40.264 6.3 38.5654 6.3C37.1094 6.3 35.952 6.73867 35.0934 7.616C34.2347 8.49333 33.8054 9.688 33.8054 11.2C33.8054 12.6747 34.2254 13.86 35.0654 14.756C35.924 15.652 37.0627 16.1 38.4814 16.1C39.3214 16.1 40.124 15.9413 40.8894 15.624V10.668ZM68.4009 16.016V21H52.1049V1.4H68.0369V6.384H58.6009V8.68H66.8889V13.44H58.6009V16.016H68.4009ZM92.9248 1.4V21H87.4928L80.0448 12.096V21H73.6048V1.4H79.0368L86.4848 10.304V1.4H92.9248ZM103.025 6.524H97.2847V1.4H115.373V6.524H109.633V21H103.025V6.524ZM136.045 16.016V21H119.749V1.4H135.681V6.384H126.245V8.68H134.533V13.44H126.245V16.016H136.045ZM152.303 1.4H161.963C164.147 1.4 166.07 1.80133 167.731 2.604C169.411 3.388 170.709 4.51733 171.623 5.992C172.557 7.46667 173.023 9.20267 173.023 11.2C173.023 13.1973 172.557 14.9333 171.623 16.408C170.709 17.8827 169.411 19.0213 167.731 19.824C166.07 20.608 164.147 21 161.963 21H152.303V1.4ZM161.683 15.848C163.102 15.848 164.231 15.4467 165.071 14.644C165.93 13.8227 166.359 12.6747 166.359 11.2C166.359 9.72533 165.93 8.58667 165.071 7.784C164.231 6.96267 163.102 6.552 161.683 6.552H158.911V15.848H161.683ZM194.392 16.016V21H178.096V1.4H194.028V6.384H184.592V8.68H192.88V13.44H184.592V16.016H194.392ZM48.3842 34.524H42.6442V29.4H60.7322V34.524H54.9922V49H48.3842V34.524ZM74.2151 49.448C71.2097 49.448 68.8671 48.636 67.1871 47.012C65.5071 45.388 64.6671 43.1107 64.6671 40.18V29.4H71.2751V39.984C71.2751 41.4213 71.5271 42.4667 72.0311 43.12C72.5537 43.7733 73.3004 44.1 74.2711 44.1C75.2417 44.1 75.9791 43.7733 76.4831 43.12C77.0057 42.4667 77.2671 41.4213 77.2671 39.984V29.4H83.7631V40.18C83.7631 43.1107 82.9231 45.388 81.2431 47.012C79.5631 48.636 77.2204 49.448 74.2151 49.448ZM97.8521 44.072H96.0601V49H89.4521V29.4H98.8881C100.699 29.4 102.276 29.6987 103.62 30.296C104.964 30.8933 106 31.752 106.728 32.872C107.456 33.992 107.82 35.2987 107.82 36.792C107.82 38.192 107.503 39.4147 106.868 40.46C106.233 41.5053 105.319 42.336 104.124 42.952L108.24 49H101.184L97.8521 44.072ZM101.156 36.792C101.156 36.064 100.932 35.504 100.484 35.112C100.036 34.7013 99.3641 34.496 98.4681 34.496H96.0601V39.088H98.4681C99.3641 39.088 100.036 38.892 100.484 38.5C100.932 38.0893 101.156 37.52 101.156 36.792ZM112.975 29.4H119.583V49H112.975V29.4ZM132.732 49.448C131.108 49.448 129.522 49.2707 127.972 48.916C126.442 48.5427 125.182 48.048 124.192 47.432L126.32 42.616C127.254 43.1573 128.299 43.596 129.456 43.932C130.614 44.2493 131.724 44.408 132.788 44.408C133.703 44.408 134.356 44.324 134.748 44.156C135.14 43.9693 135.336 43.6987 135.336 43.344C135.336 42.9333 135.075 42.6253 134.552 42.42C134.048 42.2147 133.208 41.9907 132.032 41.748C130.52 41.4307 129.26 41.0947 128.252 40.74C127.244 40.3667 126.367 39.7693 125.62 38.948C124.874 38.108 124.5 36.9787 124.5 35.56C124.5 34.328 124.846 33.208 125.536 32.2C126.227 31.192 127.254 30.3987 128.616 29.82C129.998 29.2413 131.668 28.952 133.628 28.952C134.972 28.952 136.288 29.1013 137.576 29.4C138.883 29.68 140.031 30.1 141.02 30.66L139.032 35.448C137.11 34.4773 135.29 33.992 133.572 33.992C131.874 33.992 131.024 34.4027 131.024 35.224C131.024 35.616 131.276 35.9147 131.78 36.12C132.284 36.3067 133.115 36.512 134.272 36.736C135.766 37.016 137.026 37.3427 138.052 37.716C139.079 38.0707 139.966 38.6587 140.712 39.48C141.478 40.3013 141.86 41.4213 141.86 42.84C141.86 44.072 141.515 45.192 140.824 46.2C140.134 47.1893 139.098 47.9827 137.716 48.58C136.354 49.1587 134.692 49.448 132.732 49.448ZM163.987 49L163.931 40.068L159.675 47.236H156.763L152.507 40.376V49H146.487V29.4H151.919L158.303 39.844L164.519 29.4H169.951L170.007 49H163.987ZM186.138 49.448C184.028 49.448 182.134 49.0093 180.454 48.132C178.774 47.2547 177.458 46.0413 176.506 44.492C175.554 42.924 175.078 41.16 175.078 39.2C175.078 37.24 175.554 35.4853 176.506 33.936C177.458 32.368 178.774 31.1453 180.454 30.268C182.134 29.3907 184.028 28.952 186.138 28.952C188.247 28.952 190.142 29.3907 191.822 30.268C193.502 31.1453 194.818 32.368 195.77 33.936C196.722 35.4853 197.198 37.24 197.198 39.2C197.198 41.16 196.722 42.924 195.77 44.492C194.818 46.0413 193.502 47.2547 191.822 48.132C190.142 49.0093 188.247 49.448 186.138 49.448ZM186.138 44.1C186.959 44.1 187.696 43.904 188.35 43.512C189.022 43.1013 189.554 42.532 189.946 41.804C190.338 41.0573 190.534 40.1893 190.534 39.2C190.534 38.2107 190.338 37.352 189.946 36.624C189.554 35.8773 189.022 35.308 188.35 34.916C187.696 34.5053 186.959 34.3 186.138 34.3C185.316 34.3 184.57 34.5053 183.898 34.916C183.244 35.308 182.722 35.8773 182.33 36.624C181.938 37.352 181.742 38.2107 181.742 39.2C181.742 40.1893 181.938 41.0573 182.33 41.804C182.722 42.532 183.244 43.1013 183.898 43.512C184.57 43.904 185.316 44.1 186.138 44.1Z" fill="#14191B"/>
</svg>
