<svg width="35" height="36" viewBox="0 0 35 36" fill="none" xmlns="http://www.w3.org/2000/svg">
<path d="M27.2223 10.208C27.1002 10.1907 26.9763 10.1907 26.8543 10.208C25.5454 10.1656 24.3047 9.61947 23.3953 8.68549C22.4858 7.75151 21.9791 6.5031 21.9825 5.20499C21.9825 2.44289 24.2431 0.18457 27.047 0.18457C29.8334 0.18457 32.1115 2.42552 32.1115 5.20499C32.1078 6.50392 31.5963 7.75086 30.6846 8.68381C29.7729 9.61676 28.5318 10.1631 27.2223 10.208ZM32.9387 22.2466C30.976 23.5495 28.2247 24.0359 25.6836 23.7058C26.3496 22.2814 26.7 20.7005 26.7176 19.0329C26.7176 17.2957 26.332 15.6454 25.596 14.2035C28.1896 13.8561 30.9409 14.3425 32.9212 15.6454C35.69 17.452 35.69 20.4226 32.9387 22.2466ZM7.78781 10.208C7.91048 10.1907 8.03315 10.1907 8.15582 10.208C9.46464 10.1656 10.7053 9.61947 11.6148 8.68549C12.5243 7.75151 13.031 6.5031 13.0276 5.20499C13.0276 4.54684 12.8968 3.89513 12.6427 3.28708C12.3887 2.67903 12.0162 2.12654 11.5468 1.66116C11.0773 1.19578 10.52 0.826615 9.90657 0.574751C9.29317 0.322888 8.63574 0.193256 7.97181 0.193256C7.30788 0.193256 6.65045 0.322888 6.03705 0.574751C5.42366 0.826615 4.86632 1.19578 4.39684 1.66116C3.92737 2.12654 3.55497 2.67903 3.30089 3.28708C3.04682 3.89513 2.91605 4.54684 2.91605 5.20499C2.91605 7.91497 5.07154 10.1212 7.78781 10.208ZM7.98233 19.0329C7.98233 20.7179 8.35034 22.3161 9.01626 23.758C6.54533 24.0185 3.96926 23.4974 2.07663 22.264C-0.69221 20.44 -0.69221 17.4694 2.07663 15.6454C3.95173 14.3946 6.5979 13.8908 9.08636 14.1688C8.36786 15.628 7.98233 17.2783 7.98233 19.0329ZM17.7416 24.2791C17.5902 24.2617 17.4374 24.2617 17.286 24.2791C15.7278 24.2272 14.2511 23.5763 13.1685 22.4642C12.0859 21.3521 11.4823 19.8661 11.4854 18.3206C11.503 15.02 14.1842 12.3448 17.5313 12.3448C20.8609 12.3448 23.5597 15.02 23.5597 18.3206C23.5587 19.8678 22.9514 21.3541 21.8659 22.4659C20.7803 23.5776 19.3016 24.2277 17.7416 24.2791ZM12.0462 27.875C9.40004 29.6296 9.40004 32.5133 12.0462 34.2505C15.0604 36.2482 20.0023 36.2482 23.0164 34.2505C25.6626 32.4959 25.6626 29.6122 23.0164 27.875C20.0198 25.8773 15.0779 25.8773 12.0462 27.875Z" fill="#E68D01"/>
</svg>
