<svg width="174" height="49" viewBox="0 0 174 49" fill="none" xmlns="http://www.w3.org/2000/svg">
<path d="M34.742 17.0518H27.294L25.978 20.4678H19.258L27.826 0.867772H34.322L42.89 20.4678H36.058L34.742 17.0518ZM32.922 12.2918L31.018 7.36377L29.114 12.2918H32.922ZM56.0406 0.867772C57.8513 0.867772 59.4286 1.16644 60.7726 1.76377C62.1166 2.36111 63.1526 3.21977 63.8806 4.33977C64.6086 5.45977 64.9726 6.76644 64.9726 8.25977C64.9726 9.75311 64.6086 11.0598 63.8806 12.1798C63.1526 13.2998 62.1166 14.1584 60.7726 14.7558C59.4286 15.3531 57.8513 15.6518 56.0406 15.6518H53.2126V20.4678H46.6046V0.867772H56.0406ZM55.6206 10.5558C56.5166 10.5558 57.1886 10.3598 57.6366 9.96777C58.0846 9.55711 58.3086 8.98777 58.3086 8.25977C58.3086 7.53177 58.0846 6.97177 57.6366 6.57977C57.1886 6.16911 56.5166 5.96377 55.6206 5.96377H53.2126V10.5558H55.6206ZM79.2357 0.867772C81.0464 0.867772 82.6237 1.16644 83.9677 1.76377C85.3117 2.36111 86.3477 3.21977 87.0757 4.33977C87.8037 5.45977 88.1677 6.76644 88.1677 8.25977C88.1677 9.75311 87.8037 11.0598 87.0757 12.1798C86.3477 13.2998 85.3117 14.1584 83.9677 14.7558C82.6237 15.3531 81.0464 15.6518 79.2357 15.6518H76.4077V20.4678H69.7997V0.867772H79.2357ZM78.8157 10.5558C79.7117 10.5558 80.3837 10.3598 80.8317 9.96777C81.2797 9.55711 81.5037 8.98777 81.5037 8.25977C81.5037 7.53177 81.2797 6.97177 80.8317 6.57977C80.3837 6.16911 79.7117 5.96377 78.8157 5.96377H76.4077V10.5558H78.8157ZM103.544 20.9158C101.435 20.9158 99.5403 20.4771 97.8603 19.5998C96.1803 18.7224 94.8643 17.5091 93.9123 15.9598C92.9603 14.3918 92.4843 12.6278 92.4843 10.6678C92.4843 8.70777 92.9603 6.95311 93.9123 5.40377C94.8643 3.83577 96.1803 2.61311 97.8603 1.73577C99.5403 0.858439 101.435 0.419773 103.544 0.419773C105.654 0.419773 107.548 0.858439 109.228 1.73577C110.908 2.61311 112.224 3.83577 113.176 5.40377C114.128 6.95311 114.604 8.70777 114.604 10.6678C114.604 12.6278 114.128 14.3918 113.176 15.9598C112.224 17.5091 110.908 18.7224 109.228 19.5998C107.548 20.4771 105.654 20.9158 103.544 20.9158ZM103.544 15.5678C104.366 15.5678 105.103 15.3718 105.756 14.9798C106.428 14.5691 106.96 13.9998 107.352 13.2718C107.744 12.5251 107.94 11.6571 107.94 10.6678C107.94 9.67844 107.744 8.81977 107.352 8.09177C106.96 7.34511 106.428 6.77577 105.756 6.38377C105.103 5.97311 104.366 5.76777 103.544 5.76777C102.723 5.76777 101.976 5.97311 101.304 6.38377C100.651 6.77577 100.128 7.34511 99.7363 8.09177C99.3443 8.81977 99.1483 9.67844 99.1483 10.6678C99.1483 11.6571 99.3443 12.5251 99.7363 13.2718C100.128 13.9998 100.651 14.5691 101.304 14.9798C101.976 15.3718 102.723 15.5678 103.544 15.5678ZM119.663 0.867772H126.271V20.4678H119.663V0.867772ZM151.432 0.867772V20.4678H146L138.552 11.5638V20.4678H132.112V0.867772H137.544L144.992 9.77177V0.867772H151.432ZM161.532 5.99177H155.792V0.867772H173.88V5.99177H168.14V20.4678H161.532V5.99177ZM8.97151 48.9158C7.34751 48.9158 5.76084 48.7384 4.2115 48.3838C2.68084 48.0104 1.42084 47.5158 0.431505 46.8998L2.5595 42.0838C3.49284 42.6251 4.53817 43.0638 5.69551 43.3998C6.85284 43.7171 7.96351 43.8758 9.02751 43.8758C9.94217 43.8758 10.5955 43.7918 10.9875 43.6238C11.3795 43.4371 11.5755 43.1664 11.5755 42.8118C11.5755 42.4011 11.3142 42.0931 10.7915 41.8878C10.2875 41.6824 9.44751 41.4584 8.27151 41.2158C6.75951 40.8984 5.49951 40.5624 4.49151 40.2078C3.4835 39.8344 2.60617 39.2371 1.8595 38.4158C1.11284 37.5758 0.739505 36.4464 0.739505 35.0278C0.739505 33.7958 1.08484 32.6758 1.77551 31.6678C2.46617 30.6598 3.49284 29.8664 4.8555 29.2878C6.23684 28.7091 7.90751 28.4198 9.86751 28.4198C11.2115 28.4198 12.5275 28.5691 13.8155 28.8678C15.1222 29.1478 16.2702 29.5678 17.2595 30.1278L15.2715 34.9158C13.3488 33.9451 11.5288 33.4598 9.81151 33.4598C8.11284 33.4598 7.2635 33.8704 7.2635 34.6918C7.2635 35.0838 7.5155 35.3824 8.01951 35.5878C8.52351 35.7744 9.35417 35.9798 10.5115 36.2038C12.0048 36.4838 13.2648 36.8104 14.2915 37.1838C15.3182 37.5384 16.2048 38.1264 16.9515 38.9478C17.7168 39.7691 18.0995 40.8891 18.0995 42.3078C18.0995 43.5398 17.7542 44.6598 17.0635 45.6678C16.3728 46.6571 15.3368 47.4504 13.9555 48.0478C12.5928 48.6264 10.9315 48.9158 8.97151 48.9158ZM33.0018 48.9158C30.8925 48.9158 28.9978 48.4771 27.3178 47.5998C25.6378 46.7224 24.3218 45.5091 23.3698 43.9598C22.4178 42.3918 21.9418 40.6278 21.9418 38.6678C21.9418 36.7078 22.4178 34.9531 23.3698 33.4038C24.3218 31.8358 25.6378 30.6131 27.3178 29.7358C28.9978 28.8584 30.8925 28.4198 33.0018 28.4198C35.1112 28.4198 37.0058 28.8584 38.6858 29.7358C40.3658 30.6131 41.6818 31.8358 42.6338 33.4038C43.5858 34.9531 44.0619 36.7078 44.0619 38.6678C44.0619 40.6278 43.5858 42.3918 42.6338 43.9598C41.6818 45.5091 40.3658 46.7224 38.6858 47.5998C37.0058 48.4771 35.1112 48.9158 33.0018 48.9158ZM33.0018 43.5678C33.8232 43.5678 34.5605 43.3718 35.2138 42.9798C35.8858 42.5691 36.4178 41.9998 36.8098 41.2718C37.2018 40.5251 37.3978 39.6571 37.3978 38.6678C37.3978 37.6784 37.2018 36.8198 36.8098 36.0918C36.4178 35.3451 35.8858 34.7758 35.2138 34.3838C34.5605 33.9731 33.8232 33.7678 33.0018 33.7678C32.1805 33.7678 31.4338 33.9731 30.7618 34.3838C30.1085 34.7758 29.5858 35.3451 29.1938 36.0918C28.8018 36.8198 28.6058 37.6784 28.6058 38.6678C28.6058 39.6571 28.8018 40.5251 29.1938 41.2718C29.5858 41.9998 30.1085 42.5691 30.7618 42.9798C31.4338 43.3718 32.1805 43.5678 33.0018 43.5678ZM49.1202 28.8678H55.7282V43.3438H64.5762V48.4678H49.1202V28.8678ZM78.3048 48.9158C75.2994 48.9158 72.9568 48.1038 71.2768 46.4798C69.5968 44.8558 68.7568 42.5784 68.7568 39.6478V28.8678H75.3648V39.4518C75.3648 40.8891 75.6168 41.9344 76.1208 42.5878C76.6434 43.2411 77.3901 43.5678 78.3608 43.5678C79.3314 43.5678 80.0688 43.2411 80.5728 42.5878C81.0954 41.9344 81.3568 40.8891 81.3568 39.4518V28.8678H87.8528V39.6478C87.8528 42.5784 87.0128 44.8558 85.3328 46.4798C83.6528 48.1038 81.3101 48.9158 78.3048 48.9158ZM97.5243 33.9918H91.7843V28.8678H109.872V33.9918H104.132V48.4678H97.5243V33.9918ZM114.249 28.8678H120.857V48.4678H114.249V28.8678ZM136.974 48.9158C134.864 48.9158 132.97 48.4771 131.29 47.5998C129.61 46.7224 128.294 45.5091 127.342 43.9598C126.39 42.3918 125.914 40.6278 125.914 38.6678C125.914 36.7078 126.39 34.9531 127.342 33.4038C128.294 31.8358 129.61 30.6131 131.29 29.7358C132.97 28.8584 134.864 28.4198 136.974 28.4198C139.083 28.4198 140.978 28.8584 142.658 29.7358C144.338 30.6131 145.654 31.8358 146.606 33.4038C147.558 34.9531 148.034 36.7078 148.034 38.6678C148.034 40.6278 147.558 42.3918 146.606 43.9598C145.654 45.5091 144.338 46.7224 142.658 47.5998C140.978 48.4771 139.083 48.9158 136.974 48.9158ZM136.974 43.5678C137.795 43.5678 138.532 43.3718 139.186 42.9798C139.858 42.5691 140.39 41.9998 140.782 41.2718C141.174 40.5251 141.37 39.6571 141.37 38.6678C141.37 37.6784 141.174 36.8198 140.782 36.0918C140.39 35.3451 139.858 34.7758 139.186 34.3838C138.532 33.9731 137.795 33.7678 136.974 33.7678C136.152 33.7678 135.406 33.9731 134.734 34.3838C134.08 34.7758 133.558 35.3451 133.166 36.0918C132.774 36.8198 132.578 37.6784 132.578 38.6678C132.578 39.6571 132.774 40.5251 133.166 41.2718C133.558 41.9998 134.08 42.5691 134.734 42.9798C135.406 43.3718 136.152 43.5678 136.974 43.5678ZM172.412 28.8678V48.4678H166.98L159.532 39.5638V48.4678H153.092V28.8678H158.524L165.972 37.7718V28.8678H172.412Z" fill="#14191B"/>
</svg>
